<?xml version="1.0" encoding="UTF-8" standalone="no"?>
<svg
   xmlns:dc="http://purl.org/dc/elements/1.1/"
   xmlns:cc="http://creativecommons.org/ns#"
   xmlns:rdf="http://www.w3.org/1999/02/22-rdf-syntax-ns#"
   xmlns:svg="http://www.w3.org/2000/svg"
   xmlns="http://www.w3.org/2000/svg"
   xmlns:sodipodi="http://sodipodi.sourceforge.net/DTD/sodipodi-0.dtd"
   xmlns:inkscape="http://www.inkscape.org/namespaces/inkscape"
   id="svg"
   version="1.1"
   width="120.42403"
   height="34.32"
   viewBox="0 0 120.42403 34.320001"
   sodipodi:docname="logo.svg"
   inkscape:version="0.92.4 (unknown)">
  <metadata
     id="metadata10">
    <rdf:RDF>
      <cc:Work
         rdf:about="">
        <dc:format>image/svg+xml</dc:format>
        <dc:type
           rdf:resource="http://purl.org/dc/dcmitype/StillImage" />
      </cc:Work>
    </rdf:RDF>
  </metadata>
  <defs
     id="defs8" />
  <sodipodi:namedview
     pagecolor="#ffffff"
     bordercolor="#666666"
     borderopacity="1"
     objecttolerance="10"
     gridtolerance="10"
     guidetolerance="10"
     inkscape:pageopacity="0"
     inkscape:pageshadow="2"
     inkscape:window-width="1529"
     inkscape:window-height="633"
     id="namedview6"
     showgrid="false"
     inkscape:zoom="1"
     inkscape:cx="-351.63826"
     inkscape:cy="3.6819078"
     inkscape:window-x="204"
     inkscape:window-y="709"
     inkscape:window-maximized="0"
     inkscape:current-layer="svg" />
  <g
     id="svgg"
     transform="matrix(0.40455955,0,0,0.40455955,-15.710261,-34.589842)">
    <path
       id="path0"
       d="m 200.75,85.682 c -0.825,0.076 -2.1,0.298 -2.833,0.493 -0.734,0.195 -1.446,0.367 -1.584,0.382 -0.137,0.014 -0.29,0.081 -0.34,0.147 -0.05,0.067 -0.238,0.144 -0.417,0.172 -0.179,0.027 -0.439,0.121 -0.576,0.207 -0.138,0.087 -0.356,0.174 -0.486,0.193 -0.13,0.02 -0.43,0.179 -0.667,0.354 -0.237,0.175 -0.693,0.452 -1.014,0.615 -0.321,0.164 -0.711,0.419 -0.867,0.568 -0.511,0.487 -0.799,0.702 -0.799,0.595 0,-0.3 -3.129,3.123 -3.663,4.009 -0.222,0.366 -0.451,0.704 -0.508,0.75 -0.201,0.158 -1.44,2.959 -1.585,3.583 -0.072,0.307 -0.466,1.664 -0.557,1.917 -0.05,0.137 -0.114,12.587 -0.142,27.666 -0.053,28.274 -0.064,27.611 0.511,30.25 0.079,0.364 0.827,2.203 1.134,2.787 0.179,0.342 0.321,0.661 0.314,0.711 -0.024,0.188 1.66,2.555 2.14,3.008 0.277,0.261 0.468,0.53 0.426,0.598 -0.064,0.105 0.39,0.509 2.096,1.866 0.662,0.526 2.186,1.459 3.084,1.887 0.55,0.262 1.025,0.533 1.056,0.603 0.03,0.069 0.127,0.081 0.215,0.027 0.088,-0.054 0.25,-0.024 0.361,0.068 1.65,1.364 9.672,1.265 12.541,-0.156 0.188,-0.092 0.45,-0.189 0.584,-0.214 0.36,-0.068 1.213,-0.486 1.447,-0.709 0.113,-0.107 0.432,-0.295 0.709,-0.417 0.277,-0.123 0.503,-0.28 0.503,-0.349 0,-0.07 0.081,-0.126 0.179,-0.126 0.098,0 0.277,-0.094 0.398,-0.209 0.121,-0.114 0.427,-0.358 0.679,-0.541 0.466,-0.338 2.765,-2.584 2.645,-2.584 -0.06,0 0.812,-1.203 1.359,-1.875 0.13,-0.16 0.189,-0.291 0.13,-0.291 -0.06,0 0.002,-0.132 0.137,-0.292 0.134,-0.16 0.387,-0.629 0.562,-1.042 0.176,-0.412 0.384,-0.796 0.463,-0.852 0.079,-0.056 0.129,-0.152 0.111,-0.213 -0.028,-0.097 0.017,-0.274 0.259,-1.018 0.03,-0.092 0.229,-0.804 0.441,-1.583 l 0.387,-1.417 v -13 c 0,-10.851 -0.04,-13.152 -0.242,-13.917 -0.134,-0.504 -0.256,-0.973 -0.271,-1.041 -0.016,-0.069 -0.047,-0.163 -0.07,-0.209 -0.023,-0.046 -0.055,-0.139 -0.072,-0.208 -0.017,-0.069 -0.27,-0.642 -0.563,-1.273 -0.292,-0.631 -0.532,-1.181 -0.532,-1.22 0,-0.04 -0.093,-0.17 -0.208,-0.29 -0.115,-0.12 -0.321,-0.387 -0.458,-0.594 -0.138,-0.207 -0.368,-0.497 -0.512,-0.645 -0.145,-0.148 -0.431,-0.513 -0.637,-0.811 -0.206,-0.298 -0.478,-0.542 -0.604,-0.542 -0.127,0 -0.291,-0.096 -0.364,-0.213 -0.173,-0.277 -1.833,-1.454 -2.05,-1.454 -0.092,0 -0.167,-0.056 -0.167,-0.126 0,-1.191 -7.727,-1.955 -10.25,-1.012 -1.719,0.642 -3.416,1.478 -3.416,1.682 0,0.098 -0.041,0.137 -0.092,0.087 -0.212,-0.212 -2.792,2.342 -3.518,3.483 -0.165,0.258 -0.339,0.507 -0.386,0.553 -0.246,0.235 -1.054,2.245 -1.374,3.417 -0.343,1.26 -0.367,1.748 -0.424,8.875 l -0.061,7.541 h 3.089 3.089 l 0.056,-7.208 c 0.048,-6.193 0.103,-7.678 0.295,-7.917 0.019,-0.023 0.045,-0.098 0.058,-0.166 0.202,-1.063 2.563,-3.875 3.253,-3.875 0.176,0 0.347,-0.079 0.379,-0.176 0.032,-0.097 0.207,-0.203 0.389,-0.237 0.181,-0.034 0.33,-0.073 0.33,-0.087 0,-0.046 0.487,-0.164 1.333,-0.321 1.393,-0.26 3.938,0.343 4.999,1.183 1.009,0.798 1.254,1.024 1.185,1.093 -0.044,0.044 0.102,0.263 0.326,0.486 1.392,1.392 1.407,1.561 1.405,15.084 -0.003,13.282 -0.039,13.711 -1.33,15.808 -0.084,0.137 -0.358,0.587 -0.608,1 -0.417,0.689 -2.56,2.958 -2.56,2.711 0,-0.06 -0.11,0.038 -0.245,0.215 -0.134,0.178 -0.248,0.249 -0.252,0.157 -0.005,-0.091 -0.079,-0.054 -0.166,0.084 -0.087,0.137 -0.217,0.253 -0.289,0.258 -0.072,0.004 -0.394,0.172 -0.715,0.374 -2.633,1.655 -7.087,1.713 -10.067,0.132 -1.78,-0.944 -3.599,-2.269 -3.599,-2.621 0,-0.087 -0.169,-0.339 -0.375,-0.56 -0.618,-0.66 -0.743,-0.834 -1.269,-1.77 -0.277,-0.493 -0.677,-1.497 -0.889,-2.23 l -0.384,-1.333 v -26.5 c 0,-30.305 -0.146,-27.545 1.627,-30.655 0.606,-1.063 4.053,-4.543 3.561,-3.595 -0.076,0.147 -0.033,0.132 0.107,-0.039 0.299,-0.363 2.061,-1.189 3.372,-1.58 0.952,-0.284 4.241,-0.3 68.958,-0.342 l 67.958,-0.044 v -3.079 -3.079 l -67.041,0.02 c -36.873,0.012 -67.717,0.083 -68.542,0.158"
       inkscape:connector-curvature="0"
       style="fill:#fbbb33;fill-rule:evenodd;stroke:none" />
    <path
       id="path1"
       d="m 94.9,85.655 c -2.995,0.729 -3.398,1.832 -3.399,9.303 l -0.001,5.709 h 3.167 3.166 V 96.25 91.833 h 11.25 11.25 v 4.417 4.417 h 3.262 3.261 l -0.053,-5.792 -0.053,-5.792 -0.467,-0.95 c -0.497,-1.013 -1.074,-1.591 -2.18,-2.183 l -0.686,-0.367 -14,-0.027 c -7.7,-0.014 -14.233,0.03 -14.517,0.099 m 106.225,-0.037 c 0.206,0.039 0.544,0.039 0.75,0 0.206,-0.04 0.037,-0.073 -0.375,-0.073 -0.412,0 -0.581,0.033 -0.375,0.073 m 135.208,2.965 v 3.083 l -67.208,0.042 -67.208,0.042 67.291,0.042 67.292,0.041 v -3.166 c 0,-1.742 -0.038,-3.167 -0.083,-3.167 -0.046,0 -0.084,1.387 -0.084,3.083 m -146.664,1.998 c -0.31,0.319 -0.521,0.623 -0.469,0.674 0.051,0.052 0.333,-0.21 0.627,-0.581 0.656,-0.828 0.591,-0.866 -0.158,-0.093 m 2.073,7.768 c -0.147,0.283 -0.237,0.545 -0.201,0.581 0.036,0.036 0.191,-0.196 0.343,-0.515 0.343,-0.719 0.224,-0.774 -0.142,-0.066 m -0.659,1.818 c -0.063,0.288 -0.08,0.558 -0.038,0.601 0.043,0.042 0.126,-0.163 0.184,-0.455 0.139,-0.695 0.004,-0.83 -0.146,-0.146 m -6.502,27.75 c 0,14.85 0.02,20.9 0.044,13.445 0.024,-7.455 0.024,-19.605 0,-27 -0.024,-7.395 -0.044,-1.295 -0.044,13.555 m 6.167,0 c 0,14.208 0.02,20.045 0.044,12.971 0.024,-7.074 0.024,-18.699 0,-25.833 -0.024,-7.135 -0.044,-1.347 -0.044,12.862 m -151.915,3.344 v 26.428 l 10.209,-0.067 c 12.938,-0.086 13.818,-0.211 19.054,-2.707 19.241,-9.169 19.593,-37.367 0.587,-47.064 -5.36,-2.735 -7.241,-3.014 -20.308,-3.016 l -9.542,-0.002 v 26.428 m 65.693,-26.136 c -0.161,0.307 -1.006,2.31 -3.097,7.333 -0.697,1.672 -1.829,4.39 -2.516,6.04 -0.688,1.65 -1.813,4.35 -2.5,6 -0.688,1.65 -1.819,4.369 -2.514,6.043 -0.695,1.673 -1.812,4.355 -2.482,5.959 -0.67,1.604 -1.779,4.267 -2.464,5.917 -2.225,5.355 -3.721,8.94 -5.016,12.014 -0.699,1.658 -1.27,3.064 -1.27,3.125 0,0.061 2.013,0.111 4.475,0.111 h 4.475 l 0.429,-1.042 c 1.559,-3.78 3.123,-7.551 4.008,-9.664 l 1.029,-2.455 12.012,-0.003 12.011,-0.003 0.557,1.375 c 0.307,0.756 1.135,2.762 1.841,4.458 0.705,1.696 1.679,4.04 2.163,5.209 l 0.88,2.125 h 4.476 c 2.462,0 4.477,-0.034 4.477,-0.074 0,-0.041 -0.533,-1.372 -1.184,-2.958 -0.651,-1.587 -1.521,-3.71 -1.934,-4.718 -0.412,-1.009 -1.088,-2.621 -1.5,-3.584 -0.748,-1.745 -2.077,-4.941 -3.498,-8.416 -0.412,-1.009 -1.192,-2.862 -1.733,-4.118 -0.542,-1.256 -0.984,-2.325 -0.984,-2.376 0,-0.05 -0.563,-1.406 -1.25,-3.012 -0.688,-1.606 -1.25,-2.954 -1.25,-2.994 0,-0.041 -0.563,-1.389 -1.25,-2.995 -0.688,-1.606 -1.25,-2.959 -1.25,-3.006 0,-0.047 -0.531,-1.341 -1.179,-2.876 -1.048,-2.481 -2.178,-5.185 -4.249,-10.165 l -0.641,-1.542 h -4.46 c -4.078,0 -4.473,0.025 -4.612,0.292 m 35.141,26.125 v 26.417 h 4.5 4.5 v -8.75 -8.75 h 6.673 c 7.175,0 9.085,-0.129 11.269,-0.762 6.491,-1.882 11.559,-7.59 12.49,-14.072 1.431,-9.958 -4.733,-18.568 -14.496,-20.245 -1.231,-0.212 -3.453,-0.255 -13.208,-0.255 h -11.728 v 26.417 m 85.166,0 v 26.417 h 4.5 4.5 v -11 -11 h 10.834 10.833 v 11 11 h 4.5 4.5 V 131.25 104.833 h -4.5 -4.5 v 10.917 10.917 H 244.667 233.833 V 115.75 104.833 h -4.5 -4.5 v 26.417 m 44.834,0 v 26.417 h 4.416 4.417 V 131.25 104.833 h -4.417 -4.416 v 26.417 m 14,0.003 v 26.419 l 4.458,-0.044 4.458,-0.045 0.052,-21.416 0.052,-21.417 1.135,3.333 c 0.625,1.834 2.839,8.509 4.921,14.834 2.082,6.325 4.772,14.482 5.979,18.127 l 2.195,6.628 3.166,-0.044 3.167,-0.045 0.778,-2.333 c 0.916,-2.745 4.136,-12.522 9.386,-28.5 2.079,-6.325 3.842,-11.687 3.919,-11.917 0.078,-0.23 0.147,9.268 0.154,21.209 l 0.013,21.625 h 4.5 4.5 V 131.25 104.833 h -7.56 -7.559 l -2.024,6.125 c -8.974,27.167 -9.52,28.751 -9.525,27.667 0,-0.115 -1.684,-5.308 -3.743,-11.542 -2.058,-6.233 -4.551,-13.789 -5.54,-16.79 l -1.799,-5.457 -7.542,-0.001 -7.541,-0.002 v 26.42 M 59.772,114.137 c 13.601,2.939 18.687,19.326 9.079,29.25 -3.955,4.085 -7.604,5.278 -16.143,5.279 l -4.875,0.001 v -17.523 -17.522 l 5.209,0.093 c 4.309,0.077 5.471,0.15 6.73,0.422 m 104.439,0.076 c 8.04,2.813 8.187,13.763 0.221,16.403 l -1.349,0.447 -7.208,0.067 -7.208,0.067 v -8.779 -8.779 l 7.125,0.061 7.125,0.06 1.294,0.453 m -54.714,2.454 c 0.12,0.32 0.811,2.008 1.538,3.75 0.726,1.741 1.836,4.404 2.467,5.916 0.631,1.513 1.747,4.172 2.481,5.911 0.735,1.738 1.313,3.182 1.286,3.21 -0.028,0.027 -3.727,0.03 -8.221,0.006 l -8.172,-0.043 0.834,-2 c 0.459,-1.1 1.307,-3.125 1.884,-4.5 0.578,-1.375 1.659,-3.963 2.403,-5.75 2.581,-6.201 3.077,-7.326 3.18,-7.205 0.056,0.067 0.201,0.384 0.32,0.705 m 96.378,1.454 c 0.344,0.036 0.906,0.036 1.25,0 0.344,-0.036 0.063,-0.065 -0.625,-0.065 -0.687,0 -0.969,0.029 -0.625,0.065 m 3.875,0.379 c 0.183,0.079 0.446,0.143 0.583,0.143 0.158,0 0.127,-0.053 -0.083,-0.143 -0.183,-0.079 -0.446,-0.143 -0.583,-0.143 -0.158,0 -0.127,0.053 0.083,0.143 m -7.755,0.24 c -0.729,0.269 -2.328,1.073 -2.328,1.171 0,0.04 0.543,-0.176 1.208,-0.48 0.665,-0.303 1.396,-0.632 1.625,-0.73 0.588,-0.252 0.203,-0.222 -0.505,0.039 m -4.912,3.093 c -0.261,0.273 -0.438,0.534 -0.392,0.58 0.046,0.046 0.297,-0.14 0.559,-0.413 0.262,-0.273 0.438,-0.534 0.392,-0.58 -0.045,-0.046 -0.297,0.14 -0.559,0.413 m 21.033,3.248 c 0.152,0.32 0.307,0.552 0.343,0.516 0.076,-0.077 -0.43,-1.097 -0.544,-1.097 -0.042,0 0.048,0.262 0.201,0.581 m -6.971,1.035 c 0.201,0.386 0.496,0.632 0.615,0.512 0.04,-0.039 -0.125,-0.253 -0.367,-0.475 -0.418,-0.384 -0.429,-0.386 -0.248,-0.037 m -17.216,0.813 c -0.062,0.244 -0.08,0.476 -0.04,0.515 0.039,0.039 0.121,-0.128 0.182,-0.373 0.062,-0.244 0.08,-0.476 0.04,-0.515 -0.039,-0.039 -0.121,0.128 -0.182,0.373 m 18.243,0.262 c -0.003,0.06 0.181,0.435 0.409,0.834 0.228,0.399 0.416,0.65 0.416,0.558 10e-4,-0.184 -0.817,-1.564 -0.825,-1.392 M 199.5,137.246 v 7.08 l -3.125,0.049 -3.125,0.049 3.208,0.038 3.209,0.038 v -7.167 c 0,-3.941 -0.038,-7.166 -0.084,-7.166 -0.046,0 -0.083,3.186 -0.083,7.079 M 219.745,142 c 0,6.004 0.021,8.46 0.047,5.458 0.025,-3.002 0.025,-7.914 0,-10.916 -0.026,-3.002 -0.047,-0.546 -0.047,5.458 M 191.5,156.896 c 0,0.18 0.662,1.437 0.757,1.437 0.046,0 -0.078,-0.318 -0.274,-0.708 -0.386,-0.766 -0.483,-0.912 -0.483,-0.729 m 26.36,3.528 c -0.279,0.613 -0.226,0.743 0.076,0.186 0.141,-0.26 0.226,-0.504 0.187,-0.542 -0.038,-0.038 -0.156,0.122 -0.263,0.356 m -11.027,2.493 c -0.412,0.221 -0.69,0.405 -0.618,0.409 0.177,0.01 1.452,-0.645 1.452,-0.746 0,-0.11 0.007,-0.113 -0.834,0.337 M 91.5,167.167 v 3.166 h 17.667 17.666 V 167.167 164 H 109.167 91.5 v 3.167 m 110.208,-3.048 c 0.252,0.039 0.665,0.039 0.917,0 0.252,-0.038 0.046,-0.069 -0.458,-0.069 -0.505,0 -0.711,0.031 -0.459,0.069 m 12.783,1.006 -0.574,0.625 0.625,-0.574 c 0.581,-0.535 0.701,-0.676 0.574,-0.676 -0.028,0 -0.309,0.281 -0.625,0.625 m -20.658,3.132 c 0,0.122 1.353,0.765 1.496,0.711 0.075,-0.028 -0.23,-0.215 -0.679,-0.416 -0.449,-0.2 -0.817,-0.333 -0.817,-0.295 m 7.464,2.033 c 0.485,0.034 1.235,0.033 1.667,-0.001 0.432,-0.034 0.036,-0.062 -0.881,-0.061 -0.916,0 -1.27,0.028 -0.786,0.062"
       inkscape:connector-curvature="0"
       style="fill:#1c1c1c;fill-rule:evenodd;stroke:none" />
  </g>
</svg>
